<mxfile host="app.diagrams.net" agent="Mozilla/5.0 (Windows NT 10.0; Win64; x64) AppleWebKit/537.36 (KHTML, like Gecko) Chrome/138.0.0.0 Safari/537.36 Edg/138.0.0.0" version="27.2.0">
  <diagram name="第 1 页" id="d-FjC6e2lD_7AKDCFH2p">
    <mxGraphModel dx="1971" dy="1118" grid="1" gridSize="10" guides="1" tooltips="1" connect="1" arrows="1" fold="1" page="1" pageScale="1" pageWidth="827" pageHeight="1169" math="0" shadow="0">
      <root>
        <mxCell id="0" />
        <mxCell id="1" parent="0" />
        <mxCell id="M6vXVPV5bqtyOgdewVyb-12" value="" style="rounded=0;whiteSpace=wrap;html=1;fillColor=#dae8fc;strokeColor=#6c8ebf;" vertex="1" parent="1">
          <mxGeometry x="50" y="460" width="930" height="200" as="geometry" />
        </mxCell>
        <mxCell id="M6vXVPV5bqtyOgdewVyb-3" value="" style="edgeStyle=orthogonalEdgeStyle;rounded=0;orthogonalLoop=1;jettySize=auto;html=1;fontSize=17;" edge="1" parent="1" source="M6vXVPV5bqtyOgdewVyb-1" target="M6vXVPV5bqtyOgdewVyb-2">
          <mxGeometry relative="1" as="geometry" />
        </mxCell>
        <mxCell id="M6vXVPV5bqtyOgdewVyb-1" value="kernel32API" style="rounded=1;whiteSpace=wrap;html=1;fontSize=17;" vertex="1" parent="1">
          <mxGeometry x="140" y="510" width="120" height="60" as="geometry" />
        </mxCell>
        <mxCell id="M6vXVPV5bqtyOgdewVyb-5" value="" style="edgeStyle=orthogonalEdgeStyle;rounded=0;orthogonalLoop=1;jettySize=auto;html=1;fontSize=17;" edge="1" parent="1" source="M6vXVPV5bqtyOgdewVyb-2" target="M6vXVPV5bqtyOgdewVyb-4">
          <mxGeometry relative="1" as="geometry" />
        </mxCell>
        <mxCell id="M6vXVPV5bqtyOgdewVyb-2" value="nt层对应API" style="rounded=1;whiteSpace=wrap;html=1;fontSize=17;" vertex="1" parent="1">
          <mxGeometry x="340" y="510" width="120" height="60" as="geometry" />
        </mxCell>
        <mxCell id="M6vXVPV5bqtyOgdewVyb-7" value="" style="edgeStyle=orthogonalEdgeStyle;rounded=0;orthogonalLoop=1;jettySize=auto;html=1;fontSize=17;" edge="1" parent="1" source="M6vXVPV5bqtyOgdewVyb-4" target="M6vXVPV5bqtyOgdewVyb-6">
          <mxGeometry relative="1" as="geometry" />
        </mxCell>
        <mxCell id="M6vXVPV5bqtyOgdewVyb-4" value="Mixxx" style="rounded=1;whiteSpace=wrap;html=1;fontSize=17;" vertex="1" parent="1">
          <mxGeometry x="560" y="510" width="120" height="60" as="geometry" />
        </mxCell>
        <mxCell id="M6vXVPV5bqtyOgdewVyb-6" value="ETW回调API" style="rounded=1;whiteSpace=wrap;html=1;fontSize=17;" vertex="1" parent="1">
          <mxGeometry x="770" y="510" width="120" height="60" as="geometry" />
        </mxCell>
        <mxCell id="M6vXVPV5bqtyOgdewVyb-8" value="ReadProcessMemory" style="text;html=1;align=center;verticalAlign=middle;resizable=0;points=[];autosize=1;strokeColor=none;fillColor=none;fontSize=17;" vertex="1" parent="1">
          <mxGeometry x="100" y="590" width="190" height="30" as="geometry" />
        </mxCell>
        <mxCell id="M6vXVPV5bqtyOgdewVyb-9" value="NtReadVirtualMemory" style="text;html=1;align=center;verticalAlign=middle;resizable=0;points=[];autosize=1;strokeColor=none;fillColor=none;fontSize=17;" vertex="1" parent="1">
          <mxGeometry x="305" y="590" width="190" height="30" as="geometry" />
        </mxCell>
        <mxCell id="M6vXVPV5bqtyOgdewVyb-10" value="MiReadWriteVirtualMemory" style="text;html=1;align=center;verticalAlign=middle;resizable=0;points=[];autosize=1;strokeColor=none;fillColor=none;fontSize=17;" vertex="1" parent="1">
          <mxGeometry x="505" y="590" width="230" height="30" as="geometry" />
        </mxCell>
        <mxCell id="M6vXVPV5bqtyOgdewVyb-11" value="EtwTiLogReadWriteVm" style="text;html=1;align=center;verticalAlign=middle;resizable=0;points=[];autosize=1;strokeColor=none;fillColor=none;fontSize=17;" vertex="1" parent="1">
          <mxGeometry x="740" y="590" width="200" height="30" as="geometry" />
        </mxCell>
      </root>
    </mxGraphModel>
  </diagram>
</mxfile>
